<?xml version="1.0" encoding="UTF-8"?>
<svg width="850px" height="640px" viewBox="0 0 850 640" version="1.1" xmlns="http://www.w3.org/2000/svg" xmlns:xlink="http://www.w3.org/1999/xlink">
    <title>Combined Shape</title>
    <g id="Page-1" stroke="none" stroke-width="1" fill="none" fill-rule="evenodd">
        <g id="Combined-Shape" transform="translate(-501.6484, -342.7152)" fill="#FFFFFF">
            <path d="M965.956281,370.143463 C965.956281,370.143463 1093.84451,497.754901 1349.62096,752.977777 C1353.33973,756.687823 1351.48235,762.262891 1347.75957,762.262891 L1232.13549,762.262891 C1188.63041,762.262891 1154.4323,757.406709 1122.09558,725.122437 L935.956281,539.420166 C928.507931,531.992075 924.787922,531.992075 917.34235,539.420166 C793.249481,663.22168 731.203046,725.122437 731.203046,725.122437 C698.86633,757.406709 664.500379,762.262891 621.163146,762.262891 L505.539066,762.262891 C501.81628,762.262891 499.954887,756.691823 503.677673,752.977777 C680.659784,576.520209 808.54801,448.908771 887.34235,370.143463 C922.926529,334.572395 930.372102,334.572395 965.956281,370.143463 Z M926.579663,982.262891 C987.330986,982.262891 1036.57966,933.014213 1036.57966,872.262891 C1036.57966,811.511568 987.330986,762.262891 926.579663,762.262891 C865.828341,762.262891 816.579663,811.511568 816.579663,872.262891 C816.579663,933.014213 865.828341,982.262891 926.579663,982.262891 Z"></path>
        </g>
    </g>
</svg>