<?xml version="1.0" encoding="UTF-8"?>
<svg width="1601px" height="1763px" viewBox="0 0 1601 1763" version="1.1" xmlns="http://www.w3.org/2000/svg" xmlns:xlink="http://www.w3.org/1999/xlink">
    <title>Flag</title>
    <g id="Page-1" stroke="none" stroke-width="1" fill="none" fill-rule="evenodd" fill-opacity="0.85">
        <g id="Flag" transform="translate(0.3516, -697.7152)" fill="#FFFFFF">
            <path d="M76.6731051,2460.08422 C118.392794,2460.08422 152.219537,2426.25402 152.219537,2384.53779 L152.219537,1907.57805 C172.515352,1896.30901 255.95473,1865.86183 379.985738,1865.86183 C711.485976,1865.86183 921.211323,2027.10375 1232.4169,2027.10375 C1374.49223,2027.10375 1424.09447,2012.44015 1494.00638,1980.87299 C1558.28378,1952.6773 1600,1901.94353 1600,1812.86502 L1600,904.057488 C1600,853.317951 1554.90075,822.873073 1497.3894,822.873073 C1453.42168,822.873073 1372.22918,858.954779 1221.13632,858.954779 C909.935357,858.954779 700.211165,697.715162 368.709772,697.715162 C226.637911,697.715162 177.026432,712.37334 107.117982,743.94489 C42.8470544,772.133651 -5.68434189e-14,822.873073 -5.68434189e-14,913.077338 L-5.68434189e-14,2384.53779 C-5.68434189e-14,2425.12249 34.9542246,2460.08422 76.6731051,2460.08422 Z"></path>
        </g>
    </g>
</svg>