<?xml version="1.0" encoding="UTF-8"?>
<svg width="1880px" height="1881px" viewBox="0 0 1880 1881" version="1.1" xmlns="http://www.w3.org/2000/svg" xmlns:xlink="http://www.w3.org/1999/xlink">
    <title>Patch</title>
    <g id="Page-1" stroke="none" stroke-width="1" fill="none" fill-rule="evenodd" fill-opacity="0.5">
        <g id="Patch" transform="translate(-22.6484, -0.7152)" fill="#FFFFFF">
            <path d="M552.416662,1542.4216 L694.52263,1542.4216 C707.59945,1542.4216 717.190129,1545.9122 726.779916,1555.5002 L827.910122,1655.75463 C919.45054,1748.17083 1006.63172,1747.29594 1098.17303,1655.75463 L1198.42746,1555.5002 C1208.02439,1545.9122 1218.48727,1542.4216 1231.55695,1542.4216 L1372.79696,1542.4216 C1501.82433,1542.4216 1564.59271,1481.39406 1564.59271,1350.62586 L1564.59271,1209.38584 C1564.59271,1196.31617 1568.08331,1186.71924 1577.67131,1176.25635 L1677.05978,1076.00192 C1769.46705,984.460612 1768.6011,897.279431 1677.05978,805.739013 L1577.67131,705.48012 C1568.08331,695.019021 1564.59271,685.428341 1564.59271,672.351521 L1564.59271,531.117758 C1564.59271,401.217299 1502.69028,339.318447 1372.79696,339.318447 L1231.55695,339.318447 C1218.48727,339.318447 1208.02439,335.831414 1198.42746,326.241627 L1098.17303,225.982644 C1005.76041,133.570378 919.45054,134.442226 827.910122,225.982644 L726.779916,326.241627 C717.190129,335.831414 707.59945,339.318447 694.52263,339.318447 L552.416662,339.318447 C422.516203,339.318447 361.489555,400.345094 361.489555,531.117758 L361.489555,672.351521 C361.489555,685.428341 358.002522,695.019021 348.412735,705.48012 L248.153753,805.739013 C155.741487,897.279431 156.613334,984.460612 248.153753,1076.00192 L348.412735,1176.25635 C358.002522,1186.71924 361.489555,1196.31617 361.489555,1209.38584 L361.489555,1350.62586 C361.489555,1480.51917 422.516203,1542.4216 552.416662,1542.4216 Z" transform="translate(962.606, 940.8695) rotate(13) translate(-962.606, -940.8695)"></path>
        </g>
    </g>
</svg>