<?xml version="1.0" encoding="UTF-8"?>
<svg width="730px" height="533px" viewBox="0 0 730 533" version="1.1" xmlns="http://www.w3.org/2000/svg" xmlns:xlink="http://www.w3.org/1999/xlink">
    <title>Combined Shape</title>
    <g id="Page-1" stroke="none" stroke-width="1" fill="none" fill-rule="evenodd">
        <path d="M364.931225,366.547729 C410.77086,366.547729 447.931225,403.708095 447.931225,449.547729 C447.931225,495.387363 410.77086,532.547729 364.931225,532.547729 C319.091591,532.547729 281.931225,495.387363 281.931225,449.547729 C281.931225,403.708095 319.091591,366.547729 364.931225,366.547729 Z M374.307843,4.42830109 C374.307843,4.42830109 492.196068,122.039739 727.97252,357.262616 C731.691297,360.972661 729.833913,366.547729 726.111127,366.547729 L640.487047,366.547729 C606.981973,366.547729 582.783863,351.691548 560.447147,329.407275 L374.307843,143.705004 C366.859493,136.276913 363.139484,136.276913 355.693912,143.705004 C239.046615,260.078427 177.223548,321.756341 170.22471,328.738747 L169.722134,329.240143 C169.684906,329.277283 169.653883,329.308234 169.629064,329.332994 L169.554608,329.407275 C147.217892,351.691548 122.851941,366.547729 89.5147076,366.547729 L3.89062778,366.547729 C0.167841706,366.547729 -1.69355133,360.976661 2.02923475,357.262616 C123.06321,236.824009 220.796953,139.391308 295.230465,64.964512 L303.824379,56.3700424 C322.686174,37.5040352 339.976018,20.1901214 355.693912,4.42830109 C361.278091,-1.14276703 368.723664,-1.14276703 374.307843,4.42830109 Z" id="Combined-Shape" fill="#FFFFFF"></path>
    </g>
</svg>